<svg xmlns="http://www.w3.org/2000/svg" xmlns:xlink="http://www.w3.org/1999/xlink" x="0px" y="0px"
	 viewBox="0 0 600 130" xml:space="preserve">
<style type="text/css">
	.logo-primary{fill:#EF644C;}
	.logo-white{fill:#FFFFFF;}
	.logo-dark{fill:#1F1F1F;}
</style>
<path class="logo-primary" d="M81.6,125V25.2c0-2.7-2.2-5-4.9-5H17c-2.7,0-4.9,2.2-4.9,5V125c0,2.7,2.2,5,4.9,5h59.7
	C79.4,130,81.6,127.8,81.6,125L81.6,125z"/>
<path class="logo-white" d="M77.4,29H16.3v89.6h61.1V29z"/>
<path class="logo-white" d="M50.7,124.2c0,2.1-1.7,3.8-3.8,3.8s-3.8-1.7-3.8-3.8s1.7-3.8,3.8-3.8C48.9,120.3,50.7,122,50.7,124.2z"/>
<path class="logo-dark" d="M61.3,85.1c1.2,0.3,2.3,0.5,3.4,0.5c-9.2,9.2-24.3,10.6-33.6,6.7c2,7.8,15.5,17.2,35.9,5.8
	c-8.1,8.7-18.8,10.3-27.8,7.6c-7.8-2.3-13.5-10.1-14.8-20.7c6,4.5,20.5,6.9,31.6,1.8c-2-1.3-3.5-3.6-4.5-6
	C55.2,83.5,58.8,84.6,61.3,85.1L61.3,85.1z"/>
<path class="logo-primary" d="M51,92.1c0,0-1.2,8.3,5.7,11.4c0,0-20.6,4.3-26.9-7.4L28.7,90C28.7,90,37.4,93.2,51,92.1L51,92.1z"/>
<path class="logo-primary" d="M19.4,16.1C5,19.1,5,33.4,10,43l6.2-0.1c0,0,2.7-6,1.3-11.4c0,0,4.1-0.8,10.3-1.1c4.2-0.2,20.1-1.1,20,5.5
	c-0.1,3-2.2,3.9-4.5,3.3c0,0,3.3,3.4,7.8,1.6c4.5-1.8,4-6.7,3.3-8.2c4.3,0.4,15.8,1.1,22.4-3.3c-1.2,4.5-1.2,9.1,0,13.6l7.9,0
	c0.9-6.7,2-16.2-0.7-20.8c0.8-2,1.4-3.9,1.7-5.5c0.8-2.5,0.7-5.3,0.6-6.8v0v0c-0.1-0.6-0.1-1-0.1-1c-2.5,8.5-12.8,7.8-12.8,7.8
	c6.8-0.8,10.1-7.2,9.1-11.9c-1.2-5.3-7.8-6.6-10.6-1.5c6.9-5.8,10.2,9.4-6.3,3.5C54.6,2.7,46-1.5,34.1,0.7
	C25.9,2.1,19.4,6.6,19.4,16.1z"/>
<path class="logo-dark" d="M43.8,51.4h7.1v-0.5c0-5.6,4.6-10.1,10.1-10.1h18.8c5.6,0,10.2,4.6,10.2,10.1v18.8c0,5.6-4.6,10.2-10.2,10.2H61
	c-5.6,0-10.1-4.6-10.1-10.2V58.4h-7.1v11.2c0,5.6-4.6,10.2-10.1,10.2H14.9c-5.6,0-10.2-4.6-10.2-10.2V50.9c0-5.6,4.6-10.1,10.2-10.1
	h18.8c5.6,0,10.1,4.6,10.1,10.1V51.4z"/>
<path class="logo-white" d="M60,45.9h20.8c2.2,0,4,1.8,4,4v20.8c0,2.2-1.8,4-4,4H60c-2.2,0-4-1.8-4-4V49.9C56,47.7,57.8,45.9,60,45.9z"/>
<path class="logo-dark" d="M71.4,51.7c3.3,0,6,3.2,6,7.3s-2.7,7.3-6,7.3s-6-3.3-6-7.3C65.4,55,68.1,51.7,71.4,51.7z"/>
<path class="logo-white" d="M65.4,52.6l5.4,4.7l-7.3,2.5L65.4,52.6z"/>
<path class="logo-white" d="M13.7,45.9h20.8c2.2,0,4,1.8,4,4v20.8c0,2.2-1.8,4-4,4H13.7c-2.2,0-4-1.8-4-4V49.9
	C9.8,47.7,11.5,45.9,13.7,45.9z"/>
<path class="logo-dark" d="M24.3,51.7c3.3,0,6,3.2,6,7.3s-2.7,7.3-6,7.3s-6-3.3-6-7.3C18.3,55,21,51.7,24.3,51.7z"/>
<path class="logo-white" d="M18.3,52.6l5.4,4.7l-7.3,2.5L18.3,52.6z"/>
<path class="logo-white" d="M244.5,25.2l-15.9,89c-0.4,1.8-1.1,3.3-2.4,4.6c-1.2,1.3-2.7,2.1-4.5,2.5c-1.8,0.3-3.5,0.1-5.2-0.6
	c-1.6-0.7-2.8-1.8-3.8-3.3l-31.5-51.8l-31.6,51.8c-0.8,1.3-1.8,2.3-3.1,3c-1.3,0.7-2.7,1.1-4.2,1.1c-2.1,0-3.9-0.7-5.5-2
	c-1.6-1.3-2.6-3-2.9-5.2l-16-89h17.5l11.4,62.7L174,44.6c0.8-1.3,1.8-2.3,3-3c1.3-0.7,2.7-1.1,4.2-1.1s2.9,0.4,4.2,1.1
	c1.3,0.7,2.3,1.7,3.2,3l27,43.3L227,25.2H244.5z"/>
<path class="logo-white" d="M337.3,81.3H283V64h54.4V81.3z M345.1,120.1H283c-2.4,0-5-0.4-7.8-1.3c-2.8-0.8-5.5-2.2-7.9-4.1
	c-2.4-1.9-4.4-4.4-6-7.5c-1.6-3.1-2.4-6.9-2.4-11.3V33.8c0-1.2,0.2-2.3,0.7-3.4c0.4-1.1,1-2,1.8-2.8c0.8-0.8,1.7-1.4,2.8-1.9
	c1.1-0.4,2.2-0.7,3.4-0.7h77.5v17.2h-69V96c0,2.3,0.6,4,1.8,5.2c1.2,1.2,2.9,1.8,5.2,1.8h62V120.1z"/>
<path class="logo-white" d="M440.3,81.3h-54.4V64h54.4V81.3z M448,42.4h-69v77.7h-17.2V33.8c0-1.2,0.2-2.3,0.7-3.4c0.4-1.1,1-2,1.8-2.8
	c0.8-0.8,1.7-1.4,2.8-1.9c1.1-0.4,2.2-0.7,3.4-0.7H448V42.4z"/>
<path class="logo-white" d="M479.2,120.1H462v-95h17.2V120.1z"/>
<path class="logo-white" d="M542.8,59.1l29-33.9h23.5l-40.9,47.6l40.6,47.3h-23.4l-28.9-33.6L514,120.1h-23.4l40.5-47.3l-40.7-47.6h23.3
	L542.8,59.1z"/>
</svg>
